# Blender v2.76 (sub 0) OBJ File: 'Abfluss2.blend'
# www.blender.org
mtllib Abfluss2.mtl
o Plane
v -1.000000 0.000000 1.000000
v 1.000000 0.000000 1.000000
v -1.000000 0.000000 -1.000000
v 1.000000 0.000000 -1.000000
v -0.875000 0.000000 1.000000
v -0.750000 0.000000 1.000000
v -0.625000 0.000000 1.000000
v -0.500000 0.000000 1.000000
v -0.375000 0.000000 1.000000
v -0.250000 0.000000 1.000000
v -0.125000 0.000000 1.000000
v 0.000000 0.000000 1.000000
v 0.125000 0.000000 1.000000
v 0.250000 0.000000 1.000000
v 0.375000 0.000000 1.000000
v 0.500000 0.000000 1.000000
v 0.625000 0.000000 1.000000
v 0.750000 0.000000 1.000000
v 0.875000 0.000000 1.000000
v 0.875000 0.000000 -1.000000
v 0.750000 0.000000 -1.000000
v 0.625000 0.000000 -1.000000
v 0.500000 0.000000 -1.000000
v 0.375000 0.000000 -1.000000
v 0.250000 0.000000 -1.000000
v 0.125000 0.000000 -1.000000
v 0.000000 0.000000 -1.000000
v -0.125000 0.000000 -1.000000
v -0.250000 0.000000 -1.000000
v -0.375000 0.000000 -1.000000
v -0.500000 0.000000 -1.000000
v -0.625000 0.000000 -1.000000
v -0.750000 0.000000 -1.000000
v -0.875000 0.000000 -1.000000
v -1.000000 0.000000 -0.886667
v -1.000000 0.000000 0.886667
v 1.000000 0.000000 0.886667
v 1.000000 0.000000 -0.886667
v -0.875000 0.000000 0.886667
v -0.875000 0.000000 -0.886667
v -0.750000 0.000000 0.886667
v -0.750000 0.000000 -0.886667
v -0.625000 0.000000 0.886667
v -0.625000 0.000000 -0.886667
v -0.500000 0.000000 0.886667
v -0.500000 0.000000 -0.886667
v -0.375000 0.000000 0.886667
v -0.375000 0.000000 -0.886667
v -0.250000 0.000000 0.886667
v -0.250000 0.000000 -0.886667
v -0.125000 0.000000 0.886667
v -0.125000 0.000000 -0.886667
v 0.000000 0.000000 0.886667
v 0.000000 0.000000 -0.886667
v 0.125000 0.000000 0.886667
v 0.125000 0.000000 -0.886667
v 0.250000 0.000000 0.886667
v 0.250000 0.000000 -0.886667
v 0.375000 0.000000 0.886667
v 0.375000 0.000000 -0.886667
v 0.500000 0.000000 0.886667
v 0.500000 0.000000 -0.886667
v 0.625000 0.000000 0.886667
v 0.625000 0.000000 -0.886667
v 0.750000 0.000000 0.886667
v 0.750000 0.000000 -0.886667
v 0.875000 0.000000 0.886667
v 0.875000 0.000000 -0.886667
v 1.000000 -0.100000 0.886667
v 1.000000 -0.100000 -0.886667
v -0.875000 -0.100000 0.886667
v -0.875000 -0.100000 -0.886667
v -0.750000 -0.100000 0.886667
v -0.750000 -0.100000 -0.886667
v -0.625000 -0.100000 0.886667
v -0.625000 -0.100000 -0.886667
v -0.500000 -0.100000 0.886667
v -0.500000 -0.100000 -0.886667
v -0.375000 -0.100000 0.886667
v -0.375000 -0.100000 -0.886667
v -0.250000 -0.100000 0.886667
v -0.250000 -0.100000 -0.886667
v -0.125000 -0.100000 0.886667
v -0.125000 -0.100000 -0.886667
v 0.000000 -0.100000 0.886667
v 0.000000 -0.100000 -0.886667
v 0.125000 -0.100000 0.886667
v 0.125000 -0.100000 -0.886667
v 0.250000 -0.100000 0.886667
v 0.250000 -0.100000 -0.886667
v 0.375000 -0.100000 0.886667
v 0.375000 -0.100000 -0.886667
v 0.500000 -0.100000 0.886667
v 0.500000 -0.100000 -0.886667
v 0.625000 -0.100000 0.886667
v 0.625000 -0.100000 -0.886667
v 0.750000 -0.100000 0.886667
v 0.750000 -0.100000 -0.886667
v 0.875000 -0.100000 0.886667
v 0.875000 -0.100000 -0.886667
v -1.000000 -0.100000 1.000000
v 1.000000 -0.100000 1.000000
v -1.000000 -0.100000 -1.000000
v 1.000000 -0.100000 -1.000000
v -0.875000 -0.100000 1.000000
v -0.750000 -0.100000 1.000000
v -0.625000 -0.100000 1.000000
v -0.500000 -0.100000 1.000000
v -0.375000 -0.100000 1.000000
v -0.250000 -0.100000 1.000000
v -0.125000 -0.100000 1.000000
v 0.000000 -0.100000 1.000000
v 0.125000 -0.100000 1.000000
v 0.250000 -0.100000 1.000000
v 0.375000 -0.100000 1.000000
v 0.500000 -0.100000 1.000000
v 0.625000 -0.100000 1.000000
v 0.750000 -0.100000 1.000000
v 0.875000 -0.100000 1.000000
v 0.875000 -0.100000 -1.000000
v 0.750000 -0.100000 -1.000000
v 0.625000 -0.100000 -1.000000
v 0.500000 -0.100000 -1.000000
v 0.375000 -0.100000 -1.000000
v 0.250000 -0.100000 -1.000000
v 0.125000 -0.100000 -1.000000
v 0.000000 -0.100000 -1.000000
v -0.125000 -0.100000 -1.000000
v -0.250000 -0.100000 -1.000000
v -0.375000 -0.100000 -1.000000
v -0.500000 -0.100000 -1.000000
v -0.625000 -0.100000 -1.000000
v -0.750000 -0.100000 -1.000000
v -0.875000 -0.100000 -1.000000
v -1.000000 -0.100000 -0.886667
v -1.000000 -0.100000 0.886667
vn 0.000000 1.000000 0.000000
vn 0.000000 0.000000 1.000000
vn -1.000000 0.000000 0.000000
vn 0.000000 0.000000 -1.000000
vn 1.000000 0.000000 0.000000
usemtl Material.001
s off
f 68//1 38//1 4//1 20//1
f 35//1 40//1 34//1 3//1
f 40//1 42//1 33//1 34//1
f 42//1 44//1 32//1 33//1
f 44//1 46//1 31//1 32//1
f 46//1 48//1 30//1 31//1
f 48//1 50//1 29//1 30//1
f 50//1 52//1 28//1 29//1
f 52//1 54//1 27//1 28//1
f 54//1 56//1 26//1 27//1
f 56//1 58//1 25//1 26//1
f 58//1 60//1 24//1 25//1
f 60//1 62//1 23//1 24//1
f 62//1 64//1 22//1 23//1
f 64//1 66//1 21//1 22//1
f 66//1 68//1 20//1 21//1
f 18//1 19//1 67//1 65//1
f 65//1 67//1 68//1 66//1
f 17//1 18//1 65//1 63//1
f 38//2 68//2 100//2 70//2
f 16//1 17//1 63//1 61//1
f 61//1 63//1 64//1 62//1
f 15//1 16//1 61//1 59//1
f 45//3 46//3 78//3 77//3
f 14//1 15//1 59//1 57//1
f 57//1 59//1 60//1 58//1
f 13//1 14//1 57//1 55//1
f 67//4 37//4 69//4 99//4
f 12//1 13//1 55//1 53//1
f 53//1 55//1 56//1 54//1
f 11//1 12//1 53//1 51//1
f 66//2 64//2 96//2 98//2
f 10//1 11//1 51//1 49//1
f 49//1 51//1 52//1 50//1
f 9//1 10//1 49//1 47//1
f 57//3 58//3 90//3 89//3
f 8//1 9//1 47//1 45//1
f 45//1 47//1 48//1 46//1
f 7//1 8//1 45//1 43//1
f 63//4 65//4 97//4 95//4
f 6//1 7//1 43//1 41//1
f 41//1 43//1 44//1 42//1
f 5//1 6//1 41//1 39//1
f 44//5 43//5 75//5 76//5
f 1//1 5//1 39//1 36//1
f 36//1 39//1 40//1 35//1
f 19//1 2//1 37//1 67//1
f 54//2 52//2 84//2 86//2
f 60//5 59//5 91//5 92//5
f 47//4 49//4 81//4 79//4
f 50//2 48//2 80//2 82//2
f 48//5 47//5 79//5 80//5
f 59//4 61//4 93//4 91//4
f 61//3 62//3 94//3 93//3
f 62//2 60//2 92//2 94//2
f 49//3 50//3 82//3 81//3
f 64//5 63//5 95//5 96//5
f 43//4 45//4 77//4 75//4
f 32//4 31//4 131//4 132//4
f 46//2 44//2 76//2 78//2
f 52//5 51//5 83//5 84//5
f 55//4 57//4 89//4 87//4
f 65//3 66//3 98//3 97//3
f 58//2 56//2 88//2 90//2
f 40//5 39//5 71//5 72//5
f 53//3 54//3 86//3 85//3
f 68//5 67//5 99//5 100//5
f 39//4 41//4 73//4 71//4
f 41//3 42//3 74//3 73//3
f 42//2 40//2 72//2 74//2
f 56//5 55//5 87//5 88//5
f 51//4 53//4 85//4 83//4
f 19//2 18//2 118//2 119//2
f 6//2 5//2 105//2 106//2
f 33//4 32//4 132//4 133//4
f 20//4 4//4 104//4 120//4
f 7//2 6//2 106//2 107//2
f 34//4 33//4 133//4 134//4
f 21//4 20//4 120//4 121//4
f 8//2 7//2 107//2 108//2
f 22//4 21//4 121//4 122//4
f 9//2 8//2 108//2 109//2
f 23//4 22//4 122//4 123//4
f 35//3 3//3 103//3 135//3
f 10//2 9//2 109//2 110//2
f 24//4 23//4 123//4 124//4
f 36//3 35//3 135//3 136//3
f 11//2 10//2 110//2 111//2
f 25//4 24//4 124//4 125//4
f 12//2 11//2 111//2 112//2
f 26//4 25//4 125//4 126//4
f 13//2 12//2 112//2 113//2
f 27//4 26//4 126//4 127//4
f 14//2 13//2 113//2 114//2
f 1//3 36//3 136//3 101//3
f 28//4 27//4 127//4 128//4
f 15//2 14//2 114//2 115//2
f 2//2 19//2 119//2 102//2
f 29//4 28//4 128//4 129//4
f 16//2 15//2 115//2 116//2
f 37//5 2//5 102//5 69//5
f 30//4 29//4 129//4 130//4
f 17//2 16//2 116//2 117//2
f 3//4 34//4 134//4 103//4
f 31//4 30//4 130//4 131//4
f 18//2 17//2 117//2 118//2
f 5//2 1//2 101//2 105//2
f 4//5 38//5 70//5 104//5
usemtl Material.002
f 95//1 97//1 98//1 96//1
f 91//1 93//1 94//1 92//1
f 87//1 89//1 90//1 88//1
f 83//1 85//1 86//1 84//1
f 79//1 81//1 82//1 80//1
f 75//1 77//1 78//1 76//1
f 71//1 73//1 74//1 72//1
f 99//1 69//1 70//1 100//1
