# Blender v2.76 (sub 0) OBJ File: 'levelstarter.blend'
# www.blender.org
mtllib levelstarter.mtl
o Plane
v -0.400000 0.926564 0.215668
v 0.400000 0.926564 0.215668
v -0.400000 1.322543 -0.180312
v 0.400000 1.322543 -0.180312
v -0.320000 1.282945 -0.140714
v -0.320000 0.966161 0.176070
v 0.320000 0.966161 0.176070
v 0.320000 1.282945 -0.140714
v -0.320000 1.247590 -0.176070
v -0.320000 0.930806 0.140714
v 0.320000 0.930806 0.140714
v 0.320000 1.247590 -0.176070
v -0.400000 0.891208 0.180312
v 0.400000 0.891208 0.180312
v -0.400000 1.287188 -0.215668
v 0.400000 1.287188 -0.215668
v -0.050000 0.000000 0.050000
v -0.050000 1.020000 0.050000
v -0.050000 0.000000 -0.050000
v -0.050000 1.120000 -0.050000
v 0.050000 0.000000 0.050000
v 0.050000 1.020000 0.050000
v 0.050000 0.000000 -0.050000
v 0.050000 1.120000 -0.050000
vt 0.645658 0.050735
vt 0.055758 0.042197
vt 0.000110 0.000110
vt 0.688365 0.000110
vt 0.579114 0.092637
vt 0.593518 0.440238
vt 0.550701 0.410237
vt 0.548465 0.132885
vt 0.115591 0.091532
vt 0.653350 0.489573
vt 0.063451 0.481035
vt 0.129994 0.439133
vt 0.158407 0.121533
vt 0.160644 0.398885
vt 0.708998 0.531660
vt 0.020744 0.531660
vt 0.854554 0.741322
vt 0.781886 0.813990
vt 0.781886 0.000110
vt 0.854554 0.000110
vt 0.709218 0.813990
vt 0.709218 0.000110
vt 0.999890 0.813990
vt 0.927222 0.741322
vt 0.927222 0.000110
vt 0.999890 0.000110
vn 0.000000 -0.707100 0.707100
vn -1.000000 0.000000 0.000000
vn 0.000000 0.707100 0.707100
vn 1.000000 0.000000 0.000000
vn 0.000000 0.707100 -0.707100
vn 0.000000 0.000000 -1.000000
vn 0.000000 0.000000 1.000000
usemtl None
s off
f 2/1/1 1/2/1 13/3/1 14/4/1
f 7/5/2 8/6/2 12/7/2 11/8/2
f 1/2/3 2/1/3 7/5/3 6/9/3
f 2/1/3 4/10/3 8/6/3 7/5/3
f 3/11/3 1/2/3 6/9/3 5/12/3
f 4/10/3 3/11/3 5/12/3 8/6/3
f 10/13/3 11/8/3 12/7/3 9/14/3
f 5/12/4 6/9/4 10/13/4 9/14/4
f 8/6/1 5/12/1 9/14/1 12/7/1
f 6/9/5 7/5/5 11/8/5 10/13/5
f 4/10/4 2/1/4 14/4/4 16/15/4
f 1/2/2 3/11/2 15/16/2 13/3/2
f 3/11/5 4/10/5 16/15/5 15/16/5
f 18/17/2 20/18/2 19/19/2 17/20/2
f 20/18/6 24/21/6 23/22/6 19/19/6
f 24/23/4 22/24/4 21/25/4 23/26/4
f 22/24/7 18/17/7 17/20/7 21/25/7
