# Blender v2.76 (sub 0) OBJ File: 'wall.blend'
# www.blender.org
mtllib wall.mtl
o Plane
v -2.000000 0.000000 0.000000
v 0.000000 0.000000 0.000000
v -2.000000 0.900000 0.000000
v 0.000000 0.900000 0.000000
v -2.000000 0.900000 0.200000
v 0.000000 0.900000 0.200000
v -2.000000 1.100000 0.200000
v 0.000000 1.100000 0.200000
v -2.000000 1.100000 0.000000
v 0.000000 1.100000 0.000000
v -2.000000 2.000000 0.000000
v 0.000000 2.000000 0.000000
v 0.000000 0.000000 -0.200000
v 0.000000 0.900000 -0.200000
v 0.000000 1.100000 -0.200000
v 0.000000 1.950000 -0.200000
v -2.000000 0.000000 -0.200000
v -2.000000 0.900000 -0.200000
v -2.000000 1.100000 -0.200000
v -2.000000 1.950000 -0.200000
vt 0.001732 0.014971
vt 0.994733 0.014971
vt 0.994733 0.382829
vt 0.001732 0.382829
vt 0.994733 0.464575
vt 0.001732 0.464575
vt 0.994733 0.546321
vt 0.001732 0.546322
vt 0.994733 0.628067
vt 0.001732 0.628068
vt 0.994734 0.995925
vt 0.001733 0.995926
vt -0.127718 0.470628
vt -0.127718 0.573887
vt -0.230977 0.573887
vt -0.230977 0.470628
vt -0.024460 0.470628
vt -0.024460 0.573887
vt -0.127719 1.038549
vt -0.024461 1.038549
vt -0.127717 0.005966
vt -0.024459 0.005966
vt 1.008122 0.470630
vt 1.008122 0.573889
vt 1.008121 1.038551
vt 1.008123 0.005968
vt -0.024461 1.141807
vt 1.008121 1.141810
vt 1.111380 1.038551
vt 1.111381 0.573889
vt 1.214639 0.470630
vt 1.214639 0.573889
vt 1.111381 0.470630
vt 1.111381 0.005968
vn 0.000000 0.000000 1.000000
vn 0.000000 -1.000000 0.000000
vn 0.000000 1.000000 0.000000
vn 1.000000 0.000000 0.000000
vn 0.000000 0.000000 -1.000000
vn 0.000000 0.970100 -0.242500
vn -1.000000 0.000000 0.000000
usemtl None
s off
f 1/1/1 2/2/1 4/3/1 3/4/1
f 3/4/2 4/3/2 6/5/2 5/6/2
f 5/6/1 6/5/1 8/7/1 7/8/1
f 7/8/3 8/7/3 10/9/3 9/10/3
f 9/10/1 10/9/1 12/11/1 11/12/1
f 4/13/4 10/14/4 8/15/4 6/16/4
f 10/14/4 4/13/4 14/17/4 15/18/4
f 12/19/4 10/14/4 15/18/4 16/20/4
f 4/13/4 2/21/4 13/22/4 14/17/4
f 15/18/5 14/17/5 18/23/5 19/24/5
f 16/20/5 15/18/5 19/24/5 20/25/5
f 14/17/5 13/22/5 17/26/5 18/23/5
f 12/27/6 16/20/6 20/25/6 11/28/6
f 11/29/7 20/25/7 19/24/7 9/30/7
f 5/31/7 7/32/7 9/30/7 3/33/7
f 19/24/7 18/23/7 3/33/7 9/30/7
f 3/33/7 18/23/7 17/26/7 1/34/7
